<svg width="22" height="19" viewBox="0 0 22 19" fill="none" xmlns="http://www.w3.org/2000/svg">
<g clip-path="url(#clip0_2_2)">
<path d="M20.2991 9.78586C22.567 7.54338 22.567 3.90213 20.2991 1.68186C18.0311 -0.56062 14.3486 -0.56062 12.0806 1.68186L10.9804 2.792L9.88007 1.70406C7.61215 -0.56062 3.92957 -0.56062 1.6841 1.68186C0.583822 2.76979 0 4.21297 0 5.74496C0 7.27695 0.606277 8.72013 1.6841 9.80806L10.9804 19L20.2991 9.78586ZM1.4371 5.74496C1.4371 4.59042 1.8862 3.52469 2.71702 2.72539C3.5703 1.88168 4.67058 1.45983 5.77086 1.45983C6.87114 1.45983 7.97142 1.88168 8.8247 2.72539L10.9804 4.83465L13.136 2.70318C14.8201 1.03798 17.582 1.03798 19.2437 2.70318C20.0521 3.50248 20.5236 4.56821 20.5236 5.72276C20.5236 6.8773 20.0745 7.94303 19.2437 8.74233L15.1121 12.8387L10.9804 16.9351L2.71702 8.76453C1.90865 7.94303 1.4371 6.8773 1.4371 5.74496Z" fill="black"/>
<path d="M3.68976 2.1544C4.28744 2.51579 4.84479 2.92165 5.36697 3.38582C5.57899 3.57427 5.79682 3.79886 6.04659 3.93761C6.7982 4.35517 7.46627 4.93395 8.17895 5.40907" stroke="black" stroke-width="3" stroke-linecap="round"/>
<path d="M6.27104 2.77167C7.79656 4.29719 9.52964 5.71907 10.754 7.51026C11.1076 8.02755 11.5601 9.00519 12.2192 9.22489" stroke="black" stroke-width="3" stroke-linecap="round"/>
<path d="M2.51134 3.72562C3.4268 3.96443 4.42041 4.34845 5.25785 4.7918C5.71306 5.0328 6.09618 5.39619 6.55161 5.63352C7.20402 5.97351 8.165 6.45058 8.54369 7.12057C8.73627 7.46128 9.10945 7.72247 9.40724 7.95918C10.149 8.54877 10.8133 9.21132 11.4773 9.88579C11.502 9.91092 11.8309 10.2435 11.7952 10.2911C11.6271 10.5152 11.6695 11.0839 11.6331 11.3541C11.5752 11.7845 11.4609 12.2947 11.4336 12.704C11.4286 12.7794 11.5552 12.5907 11.5739 12.5637C11.7141 12.3613 11.9656 12.2046 12.1943 12.1179C12.4864 12.0071 12.777 11.9443 13.0609 11.8062C13.1352 11.7701 13.2955 11.704 13.3415 11.7501" stroke="black" stroke-width="3" stroke-linecap="round"/>
<path d="M8.06671 11.245C8.59465 11.1373 9.06474 10.9641 9.55064 10.7275C10.367 10.33 11.1932 9.95678 12.0135 9.56781C12.6657 9.2585 13.376 9.03814 14.0024 8.6762C14.1898 8.56792 14.6681 8.44355 14.7444 8.21481" stroke="black" stroke-width="3" stroke-linecap="round"/>
<path d="M11.4897 8.8882C12.3096 7.36841 13.5554 6.09588 14.735 4.85415C14.9938 4.58183 15.2095 4.27064 15.4739 4.0062" stroke="black" stroke-width="3" stroke-linecap="round"/>
<path d="M11.3775 5.9141C11.3922 5.28355 11.8875 4.76336 12.2068 4.24312C12.4919 3.77852 13.0427 3.32844 13.5379 3.10835C14.1826 2.82184 14.9508 2.34339 15.6734 2.32275C16.3396 2.30371 16.8652 2.49594 17.4691 2.71555C17.7819 2.82929 18.0527 3.08233 18.3638 3.22058C18.5792 3.31632 18.843 3.44728 19.0091 3.61339C19.3259 3.93013 19.4019 4.56481 19.4019 4.98821C19.4019 5.18535 19.5142 5.40832 19.5142 5.60547C19.5142 5.83928 19.5142 6.07309 19.5142 6.30691C19.5142 6.52686 19.3709 6.86479 19.2336 7.0364C19.0199 7.30354 18.947 7.71583 18.7005 7.9623C18.531 8.13182 18.2938 8.32921 18.1643 8.52345C18.0527 8.69081 17.7415 9.17642 17.5501 9.11265" stroke="black" stroke-width="3" stroke-linecap="round"/>
<path d="M5.20485 2.04218C5.80614 2.24662 6.32647 2.59052 6.8883 2.87143C7.10136 2.97796 7.29434 3.10606 7.5118 3.20188C7.97898 3.40776 8.3001 3.76702 8.71515 4.03114C8.94774 4.17915 9.25429 4.25859 9.49764 4.42706C9.87963 4.69152 10.3019 4.96376 10.7041 5.20955C11.1098 5.45746 11.4347 5.80301 11.7703 6.13857C12.0575 6.42575 12.5367 6.75426 12.6681 7.14864" stroke="black" stroke-width="3" stroke-linecap="round"/>
<path d="M14.9127 7.76589C15.3522 6.71617 16.087 5.79844 16.777 4.90403C16.8918 4.75525 17.5052 3.74369 17.6063 3.7942C17.7856 3.88388 17.8162 4.43351 17.8276 4.59852C17.8671 5.17203 17.8124 5.7028 17.5688 6.22585C17.1785 7.0641 16.7203 7.95935 16.0382 8.60138C15.9454 8.68867 15.3798 9.01717 15.4302 9.18124C15.4834 9.35401 15.6099 9.55603 15.7794 9.61769C15.8847 9.65599 15.9262 9.83574 16.035 9.84215C16.2097 9.85242 16.7711 9.83554 16.4278 10.1788C16.3278 10.2789 16.1369 10.4017 16.007 10.4594C15.7854 10.5579 15.6942 10.7394 15.53 10.9083C15.4785 10.9613 15.1434 11.3732 15.053 11.323C14.7966 11.1805 14.9433 10.6614 14.7693 11.1359C14.5561 11.7174 14.1472 12.1818 13.9027 12.7321C13.7851 12.9966 13.5912 13.1619 13.4537 13.4023C13.1875 13.8683 13.9027 12.3928 13.9027 11.8561C13.9027 11.1946 14.0017 10.8555 13.594 10.2911C13.3427 9.94313 13.3976 10.1721 13.3976 10.5031C13.3976 10.8997 13.3956 11.277 13.3415 11.669C13.2708 12.1818 13.1304 12.7068 13.0048 13.209C12.9348 13.4891 12.8853 13.8517 12.6931 14.0788C12.4938 14.3143 12.3711 14.5963 12.1195 14.7803C12.0709 14.8157 12.0499 14.9189 11.9948 14.9361C11.9032 14.9647 11.9821 14.723 11.9106 14.7803C11.8354 14.8404 11.7405 14.8981 11.6705 14.9611C11.598 15.0264 11.602 15.1939 11.602 15.1731" stroke="black" stroke-width="3" stroke-linecap="round"/>
<path d="M10.9286 14.7803C10.6398 14.7803 10.1785 14.634 10.1991 15.0047C10.2077 15.16 10.5907 15.2658 10.7041 15.3414" stroke="black" stroke-width="3" stroke-linecap="round"/>
<path d="M10.5358 15.2292V15.5659" stroke="black" stroke-width="3" stroke-linecap="round"/>
<path d="M10.0307 15.117C9.79745 14.8183 9.50517 14.4944 9.24514 14.2191C9.15023 14.1186 9.15861 13.976 9.02068 13.8949C8.90568 13.8273 8.78304 13.7009 8.68399 13.6019C8.56538 13.4832 8.43316 13.3736 8.27871 13.3088C7.78985 13.1038 7.48545 12.6567 7.26864 12.199C7.22199 12.1005 7.22799 11.9543 7.15641 11.8748C7.03719 11.7423 6.84307 11.698 6.71996 11.5817C6.6501 11.5157 6.62957 11.4758 6.60462 11.3884C6.5876 11.3289 6.36669 11.2645 6.31469 11.2326C6.02925 11.0574 5.7654 10.7955 5.52908 10.5592C5.38582 10.4159 5.33272 10.2265 5.20486 10.0916C4.99525 9.87029 4.75456 9.72153 4.5876 9.46182C4.3525 9.09611 4.08365 8.76712 3.8581 8.39563C3.75915 8.23265 3.80876 7.94763 3.68976 7.82202C3.55416 7.67889 3.37306 7.58347 3.24084 7.42921C3.1414 7.31319 3.08171 7.02474 3.07249 6.86806C3.06717 6.7775 2.95912 6.67248 2.91662 6.58749C2.75822 6.27068 2.62357 6.05623 2.62357 5.68965C2.62357 5.52634 2.55246 5.06969 2.7358 4.97262C2.89486 4.88841 2.96264 5.32815 3.04132 5.40907C3.20612 5.57859 3.40882 5.6318 3.60247 5.752C3.82703 5.89138 4.04441 6.07313 4.25091 6.23833C4.6767 6.57896 5.10861 6.91267 5.52908 7.26087C6.35006 7.94073 7.30185 8.36607 8.13531 9.02537C8.96876 9.68467 9.94885 10.4471 10.5358 11.3448C10.7438 11.6629 10.8552 11.8801 10.5794 12.1865C10.3103 12.4855 10.0823 12.6024 9.69406 12.3112" stroke="black" stroke-width="3" stroke-linecap="round"/>
</g>
<defs>
<clipPath id="clip0_2_2">
<rect width="22" height="19" fill="white"/>
</clipPath>
</defs>
</svg>
